<svg version="1.1" xmlns="http://www.w3.org/2000/svg" xmlns:xlink="http://www.w3.org/1999/xlink" x="0px" y="0px"
	 viewBox="0 0 191 24" style="enable-background:new 0 0 191 24;" xml:space="preserve">
<style type="text/css">
	.st0{fill:#4285F4;}
	.st1{fill:#EA4335;}
	.st2{fill:#FBBC04;}
	.st3{fill:#34A853;}
	.st4{fill:#5F6368;}
	.st5{display:none;}
	.st6{display:inline;}
</style>
<g id="Google_Workspace_logo">
	<g>
		<path class="st0" d="M9.5,18.6C4.3,18.6,0,14.4,0,9.3C0,4.2,4.3,0,9.5,0c2.9,0,4.9,1.1,6.4,2.6l-1.8,1.8c-1.1-1-2.6-1.8-4.6-1.8
			c-3.8,0-6.7,3-6.7,6.8c0,3.7,2.9,6.8,6.7,6.8c2.4,0,3.8-1,4.7-1.9c0.7-0.7,1.2-1.8,1.4-3.2H9.5V8.5h8.6c0.1,0.5,0.1,1,0.1,1.6
			c0,1.9-0.5,4.3-2.2,5.9C14.4,17.7,12.3,18.6,9.5,18.6z"/>
		<path class="st1" d="M31.5,12.6c0,3.5-2.7,6-5.9,6s-5.9-2.5-5.9-6c0-3.5,2.7-6,5.9-6S31.5,9.2,31.5,12.6z M28.9,12.6
			c0-2.2-1.5-3.6-3.3-3.6s-3.3,1.5-3.3,3.6c0,2.1,1.5,3.6,3.3,3.6S28.9,14.8,28.9,12.6z"/>
		<path class="st2" d="M44.8,12.6c0,3.5-2.7,6-5.9,6c-3.3,0-5.9-2.5-5.9-6c0-3.5,2.7-6,5.9-6C42.2,6.6,44.8,9.2,44.8,12.6z
			 M42.2,12.6c0-2.2-1.5-3.6-3.3-3.6c-1.8,0-3.3,1.5-3.3,3.6c0,2.1,1.5,3.6,3.3,3.6C40.7,16.3,42.2,14.8,42.2,12.6z"/>
		<path class="st0" d="M57.8,7v10.8c0,4.4-2.6,6.2-5.7,6.2c-2.9,0-4.7-2-5.3-3.5l2.3-1c0.4,1,1.4,2.1,3,2.1c2,0,3.2-1.2,3.2-3.5
			v-0.9h-0.1c-0.6,0.7-1.7,1.4-3.2,1.4c-3,0-5.8-2.6-5.8-6c0-3.4,2.8-6,5.8-6c1.4,0,2.6,0.6,3.2,1.3h0.1V7H57.8z M55.5,12.6
			c0-2.1-1.4-3.7-3.2-3.7c-1.8,0-3.4,1.5-3.4,3.7c0,2.1,1.5,3.6,3.4,3.6C54.1,16.3,55.5,14.7,55.5,12.6z"/>
		<path class="st3" d="M62.4,0.6v17.6h-2.6V0.6H62.4z"/>
		<path class="st1" d="M72.8,14.6l2.1,1.4c-0.7,1-2.3,2.7-5,2.7c-3.4,0-5.9-2.6-5.9-6c0-3.6,2.5-6,5.6-6c3.1,0,4.7,2.5,5.2,3.8
			l0.3,0.7l-8.1,3.3c0.6,1.2,1.6,1.8,2.9,1.8C71.2,16.3,72.1,15.6,72.8,14.6z M66.5,12.4l5.4-2.2c-0.3-0.7-1.2-1.3-2.2-1.3
			C68.3,8.9,66.4,10.1,66.5,12.4z"/>
		<path class="st4" d="M99,1.8h2.2l-4.4,16.5h-2.2L91.1,7.4H91l-3.5,10.9h-2.2L80.7,1.8h2.2l3.5,12.9h0.1L90.1,4h2l3.6,10.7h0.1
			L99,1.8z"/>
		<path class="st4" d="M101.4,12.6c0-1.7,0.5-3.2,1.6-4.3c1.1-1.1,2.5-1.7,4.2-1.7c1.7,0,3.1,0.6,4.1,1.7c1.1,1.1,1.7,2.6,1.7,4.3
			c0,1.7-0.6,3.2-1.7,4.3c-1.1,1.1-2.5,1.7-4.1,1.7c-1.7,0-3.1-0.6-4.2-1.7C101.9,15.8,101.4,14.4,101.4,12.6z M103.5,12.6
			c0,1.2,0.4,2.2,1.1,2.9c0.7,0.8,1.6,1.1,2.6,1.1s1.9-0.4,2.6-1.1c0.7-0.8,1.1-1.7,1.1-2.9c0-1.2-0.4-2.2-1.1-2.9
			c-0.7-0.8-1.6-1.2-2.6-1.2s-1.9,0.4-2.6,1.2C103.8,10.5,103.5,11.4,103.5,12.6z"/>
		<path class="st4" d="M116.9,18.3h-2.1V7h2v1.8h0.1c0.2-0.6,0.7-1.1,1.3-1.5c0.7-0.4,1.3-0.6,2-0.6c0.6,0,1.1,0.1,1.6,0.3l-0.6,2
			c-0.3-0.1-0.7-0.2-1.2-0.2c-0.8,0-1.5,0.3-2.1,1c-0.6,0.6-0.9,1.4-0.9,2.3V18.3z"/>
		<path class="st4" d="M132.9,18.3h-2.6l-3.5-5.3l-1.7,1.7v3.6H123V1.8h2.1v10.1L130,7h2.7v0.1l-4.4,4.4L132.9,18.3L132.9,18.3z"/>
		<path class="st4" d="M142.4,15.1c0,1-0.4,1.8-1.3,2.5c-0.9,0.7-1.9,1-3.2,1c-1.1,0-2.1-0.3-3-0.9c-0.9-0.6-1.5-1.4-1.8-2.3
			l1.9-0.8c0.3,0.7,0.7,1.2,1.2,1.6c0.5,0.4,1.1,0.6,1.7,0.6c0.7,0,1.2-0.1,1.7-0.4c0.5-0.3,0.7-0.6,0.7-1c0-0.7-0.6-1.2-1.7-1.6
			l-1.9-0.5c-2.2-0.6-3.3-1.6-3.3-3.2c0-1,0.4-1.9,1.3-2.5c0.8-0.6,1.9-0.9,3.2-0.9c1,0,1.9,0.2,2.7,0.7c0.8,0.5,1.4,1.1,1.7,1.9
			l-1.9,0.8c-0.2-0.5-0.6-0.8-1-1.1c-0.5-0.3-1-0.4-1.6-0.4c-0.6,0-1,0.1-1.5,0.4c-0.4,0.3-0.7,0.6-0.7,1c0,0.6,0.6,1.1,1.8,1.4
			l1.7,0.4C141.2,12.3,142.4,13.4,142.4,15.1z"/>
		<path class="st4" d="M150,18.6c-0.8,0-1.6-0.2-2.3-0.5c-0.7-0.4-1.2-0.8-1.6-1.4h-0.1l0.1,1.6v5H144V7h2v1.6h0.1
			c0.4-0.6,0.9-1,1.6-1.4c0.7-0.4,1.4-0.5,2.3-0.5c1.5,0,2.7,0.6,3.8,1.7c1.1,1.2,1.6,2.6,1.6,4.3c0,1.7-0.5,3.1-1.6,4.3
			C152.7,18,151.5,18.6,150,18.6z M149.7,16.7c1,0,1.9-0.4,2.6-1.1c0.7-0.8,1-1.7,1-2.9c0-1.2-0.3-2.2-1-2.9
			c-0.7-0.8-1.5-1.2-2.6-1.2c-1,0-1.9,0.4-2.6,1.2c-0.7,0.8-1,1.7-1,2.9c0,1.2,0.3,2.2,1,2.9C147.8,16.3,148.6,16.7,149.7,16.7z"/>
		<path class="st4" d="M161.5,6.6c1.6,0,2.8,0.4,3.7,1.3c0.9,0.8,1.4,2,1.4,3.4v6.9h-2v-1.6h-0.1c-0.9,1.3-2,1.9-3.5,1.9
			c-1.2,0-2.3-0.4-3.1-1.1c-0.8-0.7-1.3-1.7-1.3-2.8c0-1.2,0.4-2.1,1.3-2.8c0.9-0.7,2.1-1,3.5-1c1.3,0,2.3,0.2,3.1,0.7v-0.5
			c0-0.7-0.3-1.4-0.9-1.9s-1.3-0.8-2-0.8c-1.2,0-2.1,0.5-2.8,1.5l-1.9-1.2C157.9,7.4,159.4,6.6,161.5,6.6z M158.7,14.8
			c0,0.6,0.2,1,0.7,1.4c0.5,0.4,1,0.6,1.6,0.6c0.9,0,1.7-0.3,2.4-1c0.7-0.7,1-1.4,1-2.3c-0.7-0.5-1.6-0.8-2.8-0.8
			c-0.9,0-1.6,0.2-2.2,0.6S158.7,14.2,158.7,14.8z"/>
		<path class="st4" d="M174,18.6c-1.7,0-3.1-0.6-4.2-1.7c-1.1-1.2-1.6-2.6-1.6-4.3c0-1.7,0.5-3.2,1.6-4.3c1.1-1.1,2.5-1.7,4.2-1.7
			c1.1,0,2.2,0.3,3,0.9s1.5,1.4,1.9,2.4l-1.9,0.8c-0.6-1.4-1.6-2.1-3.2-2.1c-1,0-1.8,0.4-2.5,1.2c-0.7,0.8-1,1.7-1,2.9
			c0,1.1,0.3,2.1,1,2.9c0.7,0.8,1.5,1.2,2.5,1.2c1.5,0,2.6-0.7,3.3-2.1l1.9,0.8c-0.4,1-1.1,1.8-1.9,2.4
			C176.2,18.3,175.1,18.6,174,18.6z"/>
		<path class="st4" d="M185.7,18.6c-1.7,0-3-0.6-4.1-1.7s-1.6-2.6-1.6-4.3c0-1.7,0.5-3.1,1.6-4.3c1-1.1,2.4-1.7,4-1.7
			c1.7,0,3,0.5,4,1.6s1.5,2.6,1.5,4.5l0,0.2h-8.9c0,1.1,0.4,2,1.1,2.7c0.7,0.7,1.5,1,2.5,1c1.3,0,2.4-0.7,3.2-2l1.9,0.9
			c-0.5,1-1.2,1.7-2.1,2.2C187.8,18.4,186.8,18.6,185.7,18.6z M182.3,11.3h6.5c-0.1-0.8-0.4-1.4-1-1.9c-0.6-0.5-1.3-0.8-2.3-0.8
			c-0.8,0-1.5,0.2-2.1,0.7C182.8,9.8,182.5,10.4,182.3,11.3z"/>
	</g>
</g>
<g id="Guides_1_" class="st5">
</g>
<g id="specs" class="st5">
	<g id="x__x3D__G_width" class="st6">
		<text transform="matrix(0.9717 0 0 1 7.7041 34.3002)" style="fill:#FFFFFF; font-family:'ProductSans-Regular'; font-size:6px;">x</text>
	</g>
	<g class="st6">
		
			<text transform="matrix(0.9717 0 0 1 72.7382 34.3004)" style="fill:#FFFFFF; font-family:'ProductSans-Regular'; font-size:6px;">0.4x</text>
	</g>
	<g class="st6">
		<text transform="matrix(0.9717 0 0 1 103.7417 34.3006)"><tspan x="0" y="0" style="fill:#FFFFFF; font-family:'ProductSans-Regular'; font-size:6px;">Product Sans </tspan><tspan x="4.6" y="6" style="fill:#FFFFFF; font-family:'ProductSans-Regular'; font-size:6px;">Grey 700</tspan></text>
	</g>
</g>
</svg>
